<svg width="54" height="48" viewBox="0 0 54 48" fill="none" xmlns="http://www.w3.org/2000/svg">
<path d="M0 9C0 7.34344 1.51137 6 3.375 6H43.875C45.7418 6 47.25 7.34344 47.25 9C47.25 10.6594 45.7418 12 43.875 12H3.375C1.51137 12 0 10.6594 0 9ZM6.75 24C6.75 22.3406 8.26137 21 10.125 21H50.625C52.4918 21 54 22.3406 54 24C54 25.6594 52.4918 27 50.625 27H10.125C8.26137 27 6.75 25.6594 6.75 24ZM43.875 42H3.375C1.51137 42 0 40.6594 0 39C0 37.3406 1.51137 36 3.375 36H43.875C45.7418 36 47.25 37.3406 47.25 39C47.25 40.6594 45.7418 42 43.875 42Z" fill="#F8F8F8"/>
</svg>
